<?xml version="1.0" encoding="UTF-8"?>
<svg width="284" height="36" fill="none" version="1.1" viewBox="0 0 284 36" xmlns="http://www.w3.org/2000/svg">
 <g transform="matrix(.9466 0 0 .9466 .061674 .92232)" fill="#595653">
  <g stroke-width="1.1386">
   <path d="m24.856 33.988h-0.64091c0-0.0068-0.0031-0.01354-0.0045-0.02003l-0.01753-0.07834c-0.01127-0.05157-0.02334-0.1027-0.03598-0.15337-0.0053-0.02391-0.01127-0.04783-0.01708-0.07162-0.01662-0.06695-0.03415-0.13378-0.05215-0.20073l-0.0053-0.01912c-0.01982-0.07253-0.04053-0.1446-0.06205-0.21645l-0.02164-0.06945c-0.0148-0.04953-0.03051-0.09849-0.04486-0.14745-0.0085-0.02687-0.01753-0.05329-0.02607-0.0797-0.01571-0.04737-0.032-0.09461-0.04862-0.14153-0.0085-0.0247-0.01753-0.04987-0.02607-0.07412-0.02094-0.05875-0.04247-0.11716-0.06467-0.17512-0.0048-0.01241-9e-3 -0.02425-0.01389-0.03667-0.02607-0.0682-0.05352-0.13595-0.08141-0.20369-0.0099-0.0247-0.02015-0.04896-0.03051-0.07321-0.0189-0.0427-0.0378-0.08949-0.05715-0.1339l-0.03632-0.08221c-0.0189-0.04258-0.03826-0.08516-0.05807-0.12786-0.01207-0.02642-0.0247-0.05317-0.03723-0.07958-0.023-0.04907-0.04498-0.09758-0.07059-0.14574-0.0095-0.01833-0.01799-0.03712-0.02743-0.05591-0.03188-0.06342-0.06468-0.12775-0.09792-0.18912l-0.04498-0.0797-0.06342-0.11545-0.04942-0.08528c-0.02061-0.03576-0.04134-0.07162-0.06251-0.10737-0.01662-0.02892-0.03371-0.05796-0.05078-0.08516-0.02334-0.03882-0.04486-0.07674-0.07048-0.11511l-0.06478-0.10395c-0.03051-0.04771-0.06114-0.09587-0.09256-0.14312-0.01981-0.02983-0.03951-0.05932-0.05978-0.0887-0.02026-0.02937-0.04225-0.06308-0.06387-0.09416-0.02152-0.03109-0.04486-0.06217-0.06467-0.09291-0.01981-0.03063-0.04133-0.05829-0.06251-0.08516-0.02106-0.02687-0.04486-0.06263-0.06786-0.09382l-0.06331-0.08516c-0.04498-0.0567-0.0863-0.1134-0.13037-0.17045l-0.0616-0.07799c-0.02607-0.03279-0.05306-0.06524-0.07958-0.09758l-0.05932-0.07162c-0.02743-0.03279-0.05523-0.06513-0.08312-0.09792l-0.05841-0.06741-0.08721-0.09883-0.05169-0.05705c-0.10738-0.11806-0.2176-0.23442-0.33032-0.34772l-0.04953-0.04987-0.10338-0.10099-0.05078-0.04862c-0.03586-0.0345-0.07185-0.06854-0.10828-0.10225l-0.03735-0.03404c-0.12718-0.11716-0.25789-0.23136-0.39099-0.34089l-0.03644-0.03028c-0.04099-0.03404-0.08232-0.06775-0.12399-0.10099l-0.04134-0.03324c-0.04498-0.03404-0.08585-0.06774-0.12946-0.10145l-0.02209-0.01662c-0.14688-0.11252-0.29751-0.22194-0.4494-0.32726l-0.02117-0.01491c-0.04804-0.03279-0.0961-0.06513-0.14472-0.09712l-0.03188-0.02084c-0.04942-0.03291-0.09928-0.06478-0.14927-0.09678l-0.0085-0.0051c-0.16532-0.10475-0.33395-0.20517-0.50565-0.30127l-0.0067-0.0043c-0.05431-0.03028-0.10873-0.05966-0.16316-0.08904l-0.02379-0.01286c-0.28945-0.15468-0.58673-0.29677-0.89176-0.426l-0.0189-0.0081c-0.08039-0.03416-0.16134-0.06695-0.24309-0.09929h1.6086c0.26199 0 0.47468-0.2859 0.47468-0.6392 0-0.35319-0.21269-0.63909-0.47468-0.63909h-0.47912c0.0296-0.07162 0.06251-0.15257 0.09792-0.24377 0.45316-0.26757 1.2504-0.83777 2.0415-1.8852l0.0062-0.0081c0.06001-0.07834 0.11887-0.15952 0.17671-0.24332l0.01161-0.01662c0.05761-0.08221 0.11511-0.16703 0.1717-0.25561l0.01526-0.02346c0.02698-0.04258 0.05397-0.08516 0.08095-0.12786 0 0 0-0.0035 0.0032-0.0054 0.02778-0.0427 0.05522-0.0895 0.08266-0.13515l0.01753-0.02937c0.02334-0.03917 0.04713-0.07925 0.07014-0.11967 0.0045-0.0073 9e-3 -0.01457 0.01298-0.0222 0.02652-0.046 0.05306-0.09291 0.07913-0.14016l0.01799-0.03291c0.02152-0.03917 0.0427-0.07879 0.06377-0.11887 0.0063-0.01104 0.01263-0.02255 0.01844-0.03404 0.02516-0.04816 0.05033-0.09678 0.07549-0.1462l0.01753-0.0345c0.01981-0.04008 0.04008-0.08095 0.05978-0.12183l0.02163-0.04258c0.02425-0.05033 0.04805-0.10145 0.07185-0.15303l0.01492-0.03279c0.0197-0.04258 0.03905-0.08528 0.05841-0.12786l0.02288-0.05112c0.02255-0.05157 0.04498-0.1035 0.06649-0.15599 0.0041-0.0093 0.0081-0.01912 0.01172-0.02846 0.02027-0.04816 0.03997-0.09724 0.05978-0.14665l0.02243-0.05625c0.01844-0.04691 0.03689-0.09416 0.05488-0.14141l0.01354-0.03587c0.02106-0.05625 0.04179-0.11374 0.0624-0.17045l0.02164-0.06046c0.01617-0.0452 0.03188-0.0912 0.04759-0.1372 0.0058-0.01708 0.01172-0.03416 0.01708-0.05112 0.01981-0.05887 0.03962-0.11887 0.05887-0.17899 0.0063-0.02084 0.01309-0.04258 0.01935-0.06228l0.04498-0.14016c0.0058-0.02038 0.01207-0.04258 0.01799-0.06092 0.01833-0.06182 0.03677-0.12479 0.05431-0.18832 0.0059-0.02004 0.01127-0.04053 0.01662-0.06091 0.01354-0.04907 0.02698-0.09804 0.04008-0.1479 0.0058-0.02255 0.01161-0.0452 0.01799-0.06774 0.01662-0.06558 0.03324-0.13162 0.04942-0.19857l0.01344-0.05579c0.01263-0.05329 0.02516-0.10703 0.03735-0.16111l0.01617-0.07241c0.01526-0.06945 0.03051-0.13891 0.04498-0.20961 0.0031-0.01366 0.0058-0.02778 0.0085-0.0427 0.01252-0.06092 0.0247-0.12263 0.03632-0.18445 5e-3 -0.02516 0.0095-0.05033 0.01446-0.07537 0.01162-0.06354 0.02288-0.12786 0.03415-0.1914 0.0023-0.01366 0.0048-0.02687 0.0072-0.04008 0.01253-0.07491 0.02482-0.15052 0.03689-0.22669 4e-3 -0.0255 0.0081-0.05112 0.01161-0.07708 0.0095-0.06182 0.01844-0.12399 0.02744-0.18707l0.0081-0.05796c0.01081-0.07834 0.02118-0.15724 0.03109-0.23728 0.0031-0.02516 0.0058-0.05033 0.0089-0.07594 0.0078-0.06354 0.01503-0.12752 0.02164-0.19174 0.0028-0.023 0.0053-0.04554 0.0076-0.06854 0.0086-0.08243 0.01674-0.16544 0.02425-0.24924 0-0.02346 0.0041-0.04691 0.0059-0.07082 0.0058-0.06729 0.01161-0.13504 0.01662-0.20324 0-0.02516 4e-3 -0.05021 0.0058-0.07537 0.0062-0.08698 0.01207-0.17443 0.01753-0.26256 0-0.01993 0-0.04258 0.0031-0.06046 0.0041-0.07332 0.0082-0.14699 0.01127-0.22111 0-0.02687 0-0.05374 0.0037-0.08061 0.0036-0.09155 0.0072-0.18365 0.0099-0.2769v-0.03928c0.0024-0.08289 0.0041-0.16669 0.0053-0.2514v-0.08301-0.2744-0.0214-0.2982-0.08528c0-0.08516-0.0037-0.17466-0.0058-0.26336v-0.04816c-0.0032-0.10225-0.0072-0.20574-0.01127-0.3097 0-0.02687-0.0028-0.0542-0.0037-0.08095-0.0039-0.08756-0.0083-0.17557-0.01344-0.26427 0-0.02175 0-0.04258-0.0037-0.06604-0.0062-0.10646-0.01309-0.21383-0.02061-0.32211l-0.0054-0.07537c-0.0067-0.09041-0.01344-0.18115-0.02106-0.2728 0-0.02642-0.0041-0.05283-0.0062-0.07925-0.0095-0.11078-0.01981-0.22282-0.03063-0.33531 0-0.02129-0.0045-0.04258-0.0062-0.06433-0.0095-0.09587-0.01982-0.19265-0.03017-0.29022-0.0031-0.02937-0.0062-0.05829-0.0098-0.08779-0.01263-0.11591-0.02607-0.23216-0.04053-0.35023 0-0.01446-4e-3 -0.02892-0.0058-0.04258-0.01286-0.1057-0.02653-0.21194-0.04088-0.31875-0.0046-0.03153-0.0085-0.06307-0.0131-0.09459-0.01674-0.12101-0.03394-0.24303-0.0517-0.36603-1.7979-12.133-14.538-10.164-14.538-10.164l0.4081 2.6069-7.705 7.7168 0.33664 2.9798 2.9188 1.7045c0.13012-0.31357 0.29717-0.6121 0.498-0.89015 1.8832-2.0594 5.5369-3.676 6.5827-4.0114 0.20945-0.0669 0.32856-0.10056 0.32856-0.10056-5.0029 6.1385-4.4339 13.171-4.211 14.847-0.23192 0.04258-0.41126 0.3081-0.41126 0.63192 0 0.35285 0.2126 0.6392 0.47463 0.6392h1.6086c-2.6753 1.0616-4.7989 3.0836-5.9072 5.6246-0.00126 0.0035-0.00285 0.0068-0.00444 0.01025-0.081807 0.18855-0.15791 0.37995-0.22833 0.57396 1.253e-4 2e-3 1.253e-4 4e-3 0 0.0059-0.018866 0.05283-0.0373 0.10566-0.055279 0.15895-0.00672 0.01912-0.013481 0.03837-0.019777 0.05796-0.016179 0.04771-0.031163 0.09587-0.044951 0.14449-0.00808 0.02471-0.015724 0.04987-0.023364 0.07458-0.01438 0.04554-0.028316 0.09155-0.041797 0.13754l-0.024275 0.08528c-0.012582 0.04258-0.025162 0.08824-0.036856 0.13253-0.00854 0.03154-0.016623 0.06263-0.024718 0.09416-0.010817 0.04258-0.02202 0.08516-0.032359 0.12786-0.01036 0.04258-0.020232 0.08516-0.030115 0.13037-0.00991 0.04509-0.022475 0.09804-0.033258 0.14745h-0.64138c-0.12334-0.0026-0.24597 0.01821-0.36071 0.06114-0.11474 0.04293-0.21927 0.10726-0.30745 0.18901-0.088183 0.08175-0.15826 0.17944-0.2061 0.28726-0.047832 0.10782-0.072471 0.22362-0.072471 0.34055s0.024639 0.23273 0.072471 0.34055 0.11791 0.2054 0.2061 0.28727c0.088184 0.08175 0.19272 0.14597 0.30745 0.189 0.11474 0.04293 0.23737 0.06376 0.36071 0.06114h22.732c0.12342 0.0026 0.24605-0.01821 0.3607-0.06114 0.11477-0.04304 0.21929-0.10726 0.30753-0.189 0.08812-0.08187 0.15826-0.17944 0.20608-0.28727 0.04782-0.10782 0.07241-0.22362 0.07241-0.34055s-0.0246-0.23273-0.07241-0.34055c-0.04783-0.10782-0.11796-0.20552-0.20608-0.28726-0.08824-0.08175-0.19276-0.14608-0.30753-0.18901-0.11466-0.04293-0.23728-0.06376-0.3607-0.06114z"/>
   <path d="m52.436 33.988h-0.64091c0-0.0068-0.0031-0.01355-0.0045-0.02003l-0.01753-0.07834c-0.01127-0.05157-0.02334-0.1027-0.03598-0.15337-0.0053-0.02391-0.01127-0.04783-0.01708-0.07162-0.01662-0.06695-0.03416-0.13378-0.05215-0.20073l-0.0053-0.01912c-0.01981-0.07253-0.04053-0.1446-0.06205-0.21645l-0.02164-0.06945c-0.0148-0.04953-0.03051-0.09849-0.04486-0.14745-0.0085-0.02687-0.01753-0.05329-0.02607-0.0797-0.01571-0.04736-0.032-0.09461-0.04862-0.14153-0.0085-0.0247-0.01753-0.04987-0.02607-0.07412-0.02096-0.05875-0.04247-0.11716-0.06467-0.17512-0.0048-0.01241-9e-3 -0.02425-0.01389-0.03667-0.02607-0.0682-0.05351-0.13595-0.0814-0.20369-0.0099-0.0247-0.02015-0.04896-0.03051-0.07321-0.0189-0.0427-0.0378-0.08949-0.05716-0.1339l-0.03632-0.08221c-0.0189-0.04258-0.03826-0.08516-0.05807-0.12786-0.01207-0.02642-0.0247-0.05317-0.03723-0.07959-0.023-0.04907-0.04498-0.09758-0.07059-0.14574-0.0095-0.01833-0.01799-0.03712-0.02743-0.05591-0.03188-0.06342-0.06467-0.12775-0.09792-0.18912l-0.04498-0.0797-0.06342-0.11545-0.04942-0.08528c-0.02061-0.03575-0.04134-0.07162-0.06251-0.10737-0.01662-0.02892-0.0337-0.05796-0.05078-0.08516-0.02334-0.03882-0.04486-0.07674-0.07048-0.11511l-0.06478-0.10395c-0.03051-0.04771-0.06114-0.09587-0.09257-0.14312-0.01982-0.02983-0.0395-0.05932-0.05978-0.0887-0.02027-0.02937-0.04225-0.06308-0.06387-0.09416-0.02152-0.03109-0.04486-0.06217-0.06468-0.09291-0.01981-0.03063-0.04134-0.05829-0.06251-0.08516-0.02106-0.02687-0.04486-0.06263-0.06786-0.09382l-0.06331-0.08516c-0.04498-0.0567-0.0863-0.1134-0.13037-0.17045l-0.0616-0.07799c-0.02607-0.03279-0.05306-0.06524-0.07958-0.09758l-0.05932-0.07162c-0.02743-0.03279-0.05523-0.06513-0.08312-0.09792l-0.05841-0.06741-0.08721-0.09883-0.05169-0.05705c-0.10736-0.11808-0.21757-0.23444-0.33029-0.34773l-0.04953-0.04987-0.10338-0.10099-0.05078-0.04862c-0.03586-0.0345-0.07185-0.06854-0.10828-0.10224l-0.03735-0.03404c-0.12718-0.11716-0.25789-0.23136-0.39099-0.34089l-0.03644-0.03028c-0.04099-0.03404-0.08232-0.06774-0.12399-0.10099l-0.04134-0.03324c-0.04498-0.03404-0.08585-0.06774-0.12946-0.10145l-0.02209-0.01662c-0.14687-0.11249-0.29751-0.22191-0.4494-0.32723l-0.02118-0.01491c-0.04805-0.03279-0.0961-0.06513-0.14472-0.09712l-0.03188-0.02084c-0.04942-0.03291-0.09928-0.06478-0.14927-0.09678l-0.0085-0.0051c-0.16532-0.10475-0.33395-0.20517-0.50565-0.30127l-0.0067-0.0043c-0.05432-0.03028-0.10873-0.05966-0.16316-0.08904l-0.02379-0.01286c-0.28945-0.15467-0.58674-0.29677-0.89176-0.426l-0.0189-0.0081c-0.08039-0.03416-0.16134-0.06695-0.24309-0.09928h1.6086c0.26199 0 0.47468-0.2859 0.47468-0.6392 0-0.35319-0.21269-0.63909-0.47468-0.63909h-0.47912c0.0296-0.07162 0.06251-0.15257 0.09792-0.24377 0.45316-0.26757 1.2504-0.83777 2.0415-1.8852l0.0062-0.0081c0.06-0.07834 0.11887-0.15952 0.17671-0.24332l0.01162-0.01662c0.05761-0.08221 0.11511-0.16703 0.1717-0.25561l0.01526-0.02346c0.02698-0.04258 0.05397-0.08516 0.08095-0.12786 0 0 0-0.0035 0.0032-0.0054 0.02778-0.0427 0.05523-0.0895 0.08266-0.13515l0.01753-0.02937c0.02334-0.03917 0.04713-0.07925 0.07014-0.11967 0.0045-0.0073 9e-3 -0.01457 0.01298-0.0222 0.02652-0.04599 0.05306-0.09291 0.07913-0.14016l0.01799-0.03291c0.02152-0.03917 0.0427-0.07879 0.06376-0.11887 0.0063-0.01104 0.01263-0.02255 0.01844-0.03404 0.02516-0.04816 0.05033-0.09678 0.07549-0.1462l0.01753-0.0345c0.01981-0.04008 0.04008-0.08095 0.05978-0.12183l0.02164-0.04258c0.02425-0.05033 0.04804-0.10145 0.07185-0.15303l0.01492-0.03279c0.0197-0.04258 0.03905-0.08528 0.05841-0.12786l0.02288-0.05112c0.02255-0.05157 0.04498-0.1035 0.0665-0.15599 0.0041-0.0093 0.0081-0.01912 0.01172-0.02846 0.02027-0.04816 0.03996-0.09723 0.05978-0.14665l0.02243-0.05625c0.01844-0.04691 0.03689-0.09416 0.05488-0.14141l0.01354-0.03587c0.02106-0.05625 0.04179-0.11374 0.0624-0.17045l0.02164-0.06046c0.01617-0.0452 0.03188-0.0912 0.04759-0.1372 0.0058-0.01708 0.01172-0.03415 0.01708-0.05112 0.01981-0.05887 0.03962-0.11887 0.05887-0.17899 0.0063-0.02084 0.0131-0.04258 0.01936-0.06228l0.04498-0.14016c0.0058-0.02038 0.01207-0.04258 0.01799-0.06092 0.01833-0.06182 0.03677-0.12479 0.05431-0.18832 0.0059-0.02004 0.01127-0.04053 0.01662-0.06091 0.01355-0.04907 0.02698-0.09804 0.04008-0.1479 0.0058-0.02255 0.01161-0.0452 0.01799-0.06774 0.01662-0.06558 0.03324-0.13162 0.04942-0.19857l0.01344-0.05579c0.01263-0.05329 0.02516-0.10703 0.03735-0.16111l0.01617-0.07241c0.01526-0.06945 0.03051-0.13891 0.04498-0.20962 0.0031-0.01366 0.0058-0.02778 0.0085-0.0427 0.01252-0.06091 0.0247-0.12263 0.03632-0.18445 5e-3 -0.02516 0.0095-0.05033 0.01446-0.07538 0.01161-0.06354 0.02288-0.12786 0.03416-0.1914 0.0023-0.01366 0.0048-0.02687 0.0071-0.04008 0.01252-0.07491 0.02482-0.15052 0.03689-0.22669 4e-3 -0.0255 0.0081-0.05112 0.01161-0.07708 0.0095-0.06182 0.01844-0.12399 0.02744-0.18707l0.0081-0.05796c0.01081-0.07834 0.02118-0.15724 0.03109-0.23728 0.0031-0.02516 0.0058-0.05033 0.0089-0.07594 0.0078-0.06354 0.01503-0.12752 0.02164-0.19174 0.0028-0.023 0.0053-0.04554 0.0076-0.06854 0.0086-0.08243 0.01674-0.16544 0.02425-0.24924 0-0.02346 0.0041-0.04691 0.0059-0.07082 0.0058-0.06729 0.01161-0.13504 0.01662-0.20324 0-0.02516 4e-3 -0.05021 0.0058-0.07538 0.0062-0.08698 0.01207-0.17443 0.01753-0.26256 0-0.01993 0-0.04258 0.0031-0.06046 0.0041-0.07332 0.0082-0.14699 0.01127-0.22111 0-0.02687 0-0.05374 0.0037-0.08061 0.0036-0.09154 0.0071-0.18365 0.0099-0.2769v-0.03928c0.0024-0.08289 0.0041-0.16669 0.0053-0.2514v-0.08301-0.2744-0.02141-0.2982-0.08528c0-0.08516-0.0037-0.17466-0.0058-0.26336v-0.04816c-0.0032-0.10224-0.0071-0.20574-0.01127-0.3097 0-0.02687-0.0028-0.0542-0.0037-0.08095-0.0039-0.08756-0.0083-0.17557-0.01344-0.26427 0-0.02175 0-0.04258-0.0037-0.06604-0.0062-0.10646-0.01309-0.21383-0.02061-0.32211l-0.0054-0.07538c-0.0067-0.09041-0.01344-0.18115-0.02106-0.2728 0-0.02642-0.0041-0.05283-0.0062-0.07925-0.0095-0.11078-0.01981-0.22282-0.03063-0.33531 0-0.02129-0.0045-0.04258-0.0062-0.06433-0.0095-0.09587-0.01981-0.19265-0.03017-0.29023-0.0031-0.02937-0.0062-0.05829-0.0098-0.08779-0.01263-0.11591-0.02607-0.23216-0.04053-0.35023 0-0.01446-4e-3 -0.02892-0.0058-0.04258-0.01286-0.1057-0.02652-0.21194-0.04087-0.31875-0.0046-0.03153-0.0085-0.06306-0.01309-0.09459-0.01674-0.12101-0.03393-0.24303-0.05169-0.36603-1.7978-12.133-14.538-10.164-14.538-10.164l0.4081 2.6069-7.705 7.7168 0.33664 2.9798 2.9188 1.7045c0.13012-0.31357 0.29717-0.6121 0.498-0.89015 1.8832-2.0594 5.5369-3.676 6.5827-4.0114 0.20945-0.0669 0.32856-0.10056 0.32856-0.10056-5.0029 6.1385-4.4339 13.171-4.211 14.847-0.23192 0.04258-0.41126 0.3081-0.41126 0.63192 0 0.35285 0.2126 0.6392 0.47463 0.6392h1.6086c-2.6753 1.0616-4.7989 3.0836-5.9072 5.6246-0.0013 0.0035-0.0029 0.0068-0.0045 0.01025-0.08181 0.18855-0.15791 0.37995-0.22833 0.57396 1.25e-4 2e-3 1.25e-4 4e-3 0 0.0059-0.01887 0.05283-0.0373 0.10566-0.05528 0.15895-0.0067 0.01912-0.01348 0.03837-0.01978 0.05796-0.01618 0.04771-0.03117 0.09587-0.04495 0.14449-0.0081 0.0247-0.01572 0.04987-0.02337 0.07458-0.01439 0.04554-0.02832 0.09155-0.0418 0.13754l-0.02428 0.08528c-0.01258 0.04258-0.02516 0.08824-0.03685 0.13253-0.0085 0.03154-0.01662 0.06263-0.02471 0.09416-0.01081 0.04258-0.02202 0.08516-0.03236 0.12786-0.01036 0.04258-0.02023 0.08516-0.03012 0.13037-0.0099 0.04509-0.02248 0.09803-0.03326 0.14745h-0.64138c-0.12334-0.0026-0.24597 0.01821-0.36071 0.06114-0.11474 0.04293-0.21927 0.10726-0.30745 0.18901-0.08818 0.08175-0.15826 0.17944-0.2061 0.28726-0.04783 0.10782-0.07248 0.22362-0.07248 0.34055s0.02463 0.23273 0.07248 0.34055c0.04784 0.10782 0.11791 0.2054 0.2061 0.28727 0.08818 0.08175 0.19272 0.14597 0.30745 0.189 0.11474 0.04293 0.23737 0.06376 0.36071 0.06114h22.732c0.12342 0.0026 0.24605-0.01821 0.3607-0.06114 0.11477-0.04304 0.21929-0.10726 0.30753-0.189 0.08812-0.08187 0.15826-0.17944 0.20608-0.28727 0.04783-0.10782 0.07241-0.22362 0.07241-0.34055s-0.0246-0.23273-0.07241-0.34055c-0.04782-0.10782-0.11796-0.20552-0.20608-0.28726-0.08824-0.08175-0.19276-0.14608-0.30753-0.18901-0.11466-0.04293-0.23728-0.06376-0.3607-0.06114z"/>
   <path d="m80.015 33.988h-0.64091c0-0.0068-0.0031-0.01355-0.0045-0.02003l-0.01753-0.07834c-0.01127-0.05157-0.02334-0.1027-0.03598-0.15337-0.0053-0.02391-0.01127-0.04783-0.01708-0.07162-0.01662-0.06695-0.03416-0.13378-0.05215-0.20073l-0.0053-0.01912c-0.01982-0.07253-0.04053-0.1446-0.06205-0.21645l-0.02164-0.06945c-0.0148-0.04953-0.03051-0.09849-0.04486-0.14745-0.0085-0.02687-0.01753-0.05329-0.02607-0.0797-0.01571-0.04736-0.032-0.09461-0.04862-0.14153-0.0085-0.0247-0.01753-0.04987-0.02607-0.07412-0.02094-0.05875-0.04247-0.11716-0.06467-0.17512-0.0048-0.01241-9e-3 -0.02425-0.01389-0.03667-0.02607-0.0682-0.05351-0.13595-0.08141-0.20369-0.0099-0.0247-0.02015-0.04896-0.03051-0.07321-0.0189-0.0427-0.0378-0.08949-0.05716-0.1339l-0.03632-0.08221c-0.0189-0.04258-0.03826-0.08516-0.05807-0.12786-0.01207-0.02642-0.0247-0.05317-0.03723-0.07959-0.023-0.04907-0.04498-0.09758-0.07059-0.14574-0.0095-0.01833-0.01799-0.03712-0.02745-0.05591-0.03188-0.06342-0.06467-0.12775-0.09792-0.18912l-0.04498-0.0797-0.06342-0.11545-0.04942-0.08528c-0.02061-0.03575-0.04134-0.07162-0.06251-0.10737-0.01662-0.02892-0.0337-0.05796-0.05078-0.08516-0.02334-0.03882-0.04486-0.07674-0.07048-0.11511l-0.06478-0.10395c-0.03051-0.04771-0.06114-0.09587-0.09257-0.14312-0.01981-0.02983-0.03951-0.05932-0.05978-0.0887-0.02026-0.02937-0.04225-0.06308-0.06387-0.09416-0.02152-0.03109-0.04486-0.06217-0.06468-0.09291-0.01982-0.03063-0.04133-0.05829-0.06251-0.08516-0.02106-0.02687-0.04486-0.06263-0.06786-0.09382l-0.06331-0.08516c-0.04498-0.0567-0.0863-0.1134-0.13037-0.17045l-0.0616-0.07799c-0.02607-0.03279-0.05306-0.06524-0.07958-0.09758l-0.05932-0.07162c-0.02743-0.03279-0.05523-0.06513-0.08312-0.09792l-0.05841-0.06741-0.08721-0.09883-0.05169-0.05705c-0.10737-0.11807-0.21758-0.23444-0.3303-0.34772l-0.04953-0.04987-0.10338-0.10099-0.05078-0.04862c-0.03586-0.0345-0.07185-0.06854-0.10828-0.10224l-0.03735-0.03404c-0.12717-0.11715-0.25788-0.23135-0.39098-0.34088l-0.03644-0.03028c-0.04099-0.03404-0.08232-0.06774-0.12399-0.10099l-0.04134-0.03324c-0.04498-0.03404-0.08585-0.06774-0.12946-0.10145l-0.02209-0.01662c-0.14687-0.1125-0.2975-0.22192-0.44939-0.32724l-0.02118-0.01491c-0.04804-0.03279-0.0961-0.06513-0.14472-0.09712l-0.03188-0.02084c-0.04942-0.03291-0.09928-0.06478-0.14927-0.09678l-0.0085-0.0051c-0.16532-0.10475-0.33395-0.20517-0.50565-0.30127l-0.0067-0.0043c-0.05432-0.03028-0.10874-0.05966-0.16316-0.08904l-0.0238-0.01288c-0.28945-0.15467-0.58674-0.29677-0.89176-0.426l-0.0189-0.0081c-0.08039-0.03416-0.16134-0.06695-0.24309-0.09928h1.6086c0.26199 0 0.47468-0.2859 0.47468-0.6392 0-0.35319-0.21269-0.63909-0.47468-0.63909h-0.47912c0.0296-0.07162 0.06251-0.15257 0.09792-0.24377 0.45316-0.26757 1.2504-0.83777 2.0415-1.8852l0.0062-0.0081c0.06-0.07834 0.11887-0.15952 0.17671-0.24332l0.01162-0.01662c0.05761-0.08221 0.11511-0.16703 0.1717-0.25561l0.01526-0.02346c0.02698-0.04258 0.05397-0.08516 0.08095-0.12786 0 0 0-0.0035 0.0032-0.0054 0.02778-0.0427 0.05523-0.0895 0.08266-0.13515l0.01753-0.02937c0.02334-0.03917 0.04714-0.07925 0.07014-0.11967 0.0045-0.0073 9e-3 -0.01457 0.01298-0.0222 0.02652-0.04599 0.05306-0.09291 0.07913-0.14016l0.01799-0.03291c0.02152-0.03917 0.0427-0.07879 0.06376-0.11887 0.0063-0.01104 0.01263-0.02255 0.01844-0.03404 0.02516-0.04816 0.05033-0.09678 0.07549-0.1462l0.01753-0.0345c0.01981-0.04008 0.04008-0.08095 0.05978-0.12183l0.02164-0.04258c0.02425-0.05033 0.04805-0.10145 0.07185-0.15303l0.01492-0.03279c0.0197-0.04258 0.03905-0.08528 0.05841-0.12786l0.02288-0.05112c0.02255-0.05157 0.04498-0.1035 0.0665-0.15599 0.0041-0.0093 0.0081-0.01912 0.01172-0.02846 0.02026-0.04816 0.03996-0.09723 0.05978-0.14665l0.02243-0.05625c0.01844-0.04691 0.03689-0.09416 0.05488-0.14141l0.01354-0.03587c0.02106-0.05625 0.04179-0.11374 0.0624-0.17045l0.02164-0.06046c0.01617-0.0452 0.03188-0.0912 0.0476-0.1372 0.0058-0.01708 0.01172-0.03415 0.01708-0.05112 0.01981-0.05887 0.03962-0.11887 0.05887-0.17899 0.0063-0.02084 0.0131-0.04258 0.01935-0.06228l0.04498-0.14016c0.0058-0.02038 0.01207-0.04258 0.01799-0.06092 0.01833-0.06182 0.03677-0.12479 0.05432-0.18832 0.0059-0.02004 0.01127-0.04053 0.01662-0.06091 0.01354-0.04907 0.02698-0.09804 0.04008-0.1479 0.0058-0.02255 0.01162-0.0452 0.01799-0.06774 0.01662-0.06558 0.03325-0.13162 0.04942-0.19857l0.01344-0.05579c0.01264-0.05329 0.02516-0.10703 0.03735-0.16111l0.01617-0.07241c0.01526-0.06945 0.03051-0.13891 0.04498-0.20962 0.0031-0.01366 0.0058-0.02778 0.0085-0.0427 0.01252-0.06091 0.0247-0.12263 0.03632-0.18445 5e-3 -0.02516 0.0095-0.05033 0.01447-0.07538 0.01162-0.06354 0.02288-0.12786 0.03416-0.1914 0.0023-0.01366 0.0048-0.02687 0.0071-0.04008 0.01252-0.07491 0.02482-0.15052 0.03689-0.22669 4e-3 -0.0255 0.0081-0.05112 0.01161-0.07708 0.0095-0.06182 0.01844-0.12399 0.02743-0.18707l0.0081-0.05796c0.01081-0.07834 0.02118-0.15724 0.03109-0.23728 0.0031-0.02516 0.0058-0.05033 0.0089-0.07594 0.0078-0.06354 0.01503-0.12752 0.02164-0.19174 0.0028-0.023 0.0053-0.04554 0.0076-0.06854 0.0086-0.08243 0.01674-0.16544 0.02425-0.24924 0-0.02346 0.0041-0.04691 0.0059-0.07082 0.0058-0.06729 0.01162-0.13504 0.01662-0.20324 0-0.02516 4e-3 -0.05021 0.0058-0.07538 0.0062-0.08698 0.01207-0.17443 0.01753-0.26256 0-0.01993 0-0.04258 0.0031-0.06046 0.0041-0.07332 0.0082-0.14699 0.01127-0.22111 0-0.02687 0-0.05374 0.0037-0.08061 0.0036-0.09154 0.0071-0.18365 0.0099-0.2769v-0.03928c0.0024-0.08289 0.0041-0.16669 0.0053-0.2514v-0.08301-0.2744-0.02141-0.2982-0.08528c0-0.08516-0.0037-0.17466-0.0058-0.26336v-0.04816c-0.0032-0.10224-0.0071-0.20574-0.01127-0.3097 0-0.02687-0.0028-0.0542-0.0037-0.08095-0.0039-0.08756-0.0083-0.17557-0.01344-0.26427 0-0.02175 0-0.04258-0.0037-0.06604-0.0062-0.10646-0.01309-0.21383-0.02061-0.32211l-0.0054-0.07538c-0.0067-0.09041-0.01344-0.18115-0.02106-0.2728 0-0.02642-0.0041-0.05283-0.0062-0.07925-0.0095-0.11078-0.01982-0.22282-0.03063-0.33531 0-0.02129-0.0045-0.04258-0.0062-0.06433-0.0095-0.09587-0.01982-0.19265-0.03017-0.29023-0.0031-0.02937-0.0062-0.05829-0.0098-0.08779-0.01263-0.11591-0.02607-0.23216-0.04053-0.35023 0-0.01446-4e-3 -0.02892-0.0058-0.04258-0.01286-0.1057-0.02652-0.21194-0.04087-0.31875-0.0046-0.03153-0.0085-0.06306-0.01309-0.09459-0.01674-0.12101-0.03393-0.24303-0.05169-0.36603-1.7978-12.133-14.538-10.164-14.538-10.164l0.4081 2.6069-7.705 7.7168 0.33664 2.9798 2.9188 1.7045c0.13012-0.31357 0.29717-0.6121 0.498-0.89015 1.8832-2.0594 5.5369-3.676 6.5827-4.0114 0.20945-0.0669 0.32856-0.10056 0.32856-0.10056-5.0029 6.1385-4.4339 13.171-4.211 14.847-0.23192 0.04258-0.41126 0.3081-0.41126 0.63192 0 0.35285 0.2126 0.6392 0.47463 0.6392h1.6086c-2.6753 1.0616-4.7989 3.0836-5.9072 5.6246-0.0013 0.0035-0.0029 0.0068-0.0045 0.01025-0.08181 0.18855-0.15791 0.37995-0.22833 0.57396 1.24e-4 2e-3 1.24e-4 4e-3 0 0.0059-0.01887 0.05283-0.0373 0.10566-0.05528 0.15895-0.0067 0.01912-0.01348 0.03837-0.01978 0.05796-0.01618 0.04771-0.03117 0.09587-0.04495 0.14449-0.0081 0.0247-0.01572 0.04987-0.02336 0.07458-0.01438 0.04554-0.02831 0.09155-0.0418 0.13754l-0.02428 0.08528c-0.01259 0.04258-0.02516 0.08824-0.03685 0.13253-0.0085 0.03154-0.01662 0.06263-0.02471 0.09416-0.01081 0.04258-0.02202 0.08516-0.03236 0.12786-0.01036 0.04258-0.02023 0.08516-0.03012 0.13037-0.0099 0.04509-0.02248 0.09803-0.03326 0.14745h-0.64138c-0.12334-0.0026-0.24597 0.01821-0.36071 0.06114-0.11474 0.04293-0.21927 0.10726-0.30746 0.18901-0.08818 0.08175-0.15826 0.17944-0.2061 0.28726-0.04783 0.10782-0.07248 0.22362-0.07248 0.34055s0.02463 0.23273 0.07248 0.34055c0.04784 0.10782 0.11791 0.2054 0.2061 0.28727 0.08818 0.08175 0.19272 0.14597 0.30746 0.189 0.11474 0.04293 0.23737 0.06376 0.36071 0.06114h22.732c0.12342 0.0026 0.24605-0.01821 0.3607-0.06114 0.11477-0.04304 0.21929-0.10726 0.30753-0.189 0.08812-0.08187 0.15826-0.17944 0.20608-0.28727 0.04783-0.10782 0.07241-0.22362 0.07241-0.34055s-0.02459-0.23273-0.07241-0.34055c-0.04782-0.10782-0.11796-0.20552-0.20608-0.28726-0.08824-0.08175-0.19276-0.14608-0.30753-0.18901-0.11466-0.04293-0.23728-0.06376-0.3607-0.06114z"/>
   <path d="m107.59 33.988h-0.64092c0-0.0068-3e-3 -0.01355-4e-3 -0.02003l-0.0175-0.07834c-0.0113-0.05157-0.0234-0.1027-0.036-0.15337-5e-3 -0.02391-0.0113-0.04783-0.0171-0.07162-0.0166-0.06695-0.0341-0.13378-0.0521-0.20073l-5e-3 -0.01912c-0.0198-0.07253-0.0406-0.1446-0.062-0.21645l-0.0217-0.06945c-0.0148-0.04953-0.0305-0.09849-0.0448-0.14745-9e-3 -0.02687-0.0175-0.05329-0.026-0.0797-0.0157-0.04736-0.032-0.09461-0.0486-0.14153-9e-3 -0.0247-0.0175-0.04987-0.0261-0.07412-0.021-0.05875-0.0424-0.11716-0.0647-0.17512-5e-3 -0.01241-9e-3 -0.02425-0.0139-0.03667-0.0261-0.0682-0.0535-0.13595-0.0814-0.20369-0.01-0.0247-0.0202-0.04896-0.0305-0.07321-0.0189-0.0427-0.0378-0.08949-0.0572-0.1339l-0.0363-0.08221c-0.0189-0.04258-0.0383-0.08516-0.0581-0.12786-0.0121-0.02642-0.0247-0.05317-0.0372-0.07958-0.023-0.04907-0.045-0.09758-0.0705-0.14574-0.01-0.01833-0.018-0.03712-0.0274-0.05591-0.0319-0.06342-0.0647-0.12775-0.0979-0.18912l-0.045-0.0797-0.0634-0.11545-0.0494-0.08528c-0.0206-0.03575-0.0414-0.07162-0.0625-0.10737-0.0166-0.02892-0.0337-0.05796-0.0508-0.08516-0.0233-0.03882-0.0448-0.07674-0.0704-0.11511l-0.0649-0.10398c-0.0305-0.04771-0.0611-0.09587-0.0926-0.14312-0.0198-0.02983-0.0395-0.05932-0.0597-0.0887-0.0203-0.02937-0.0422-0.06308-0.0639-0.09416-0.0215-0.03109-0.0448-0.06217-0.0647-0.09291-0.0198-0.03063-0.0414-0.05829-0.0625-0.08516s-0.0448-0.06263-0.0679-0.09382l-0.0633-0.08516c-0.045-0.0567-0.0863-0.1134-0.13036-0.17045l-0.0616-0.07799c-0.026-0.03279-0.053-0.06524-0.0795-0.09758l-0.0594-0.07162c-0.0274-0.03279-0.0552-0.06513-0.0831-0.09792l-0.0584-0.06741-0.0872-0.09883-0.0517-0.05705c-0.10737-0.11807-0.21758-0.23444-0.3303-0.34772l-0.0496-0.04987-0.10338-0.10099-0.0508-0.04862c-0.0358-0.0345-0.0718-0.06854-0.10827-0.10224l-0.0373-0.03404c-0.12718-0.11715-0.25788-0.23135-0.39099-0.34088l-0.0364-0.03028c-0.041-0.03404-0.0823-0.06774-0.12398-0.10099l-0.0414-0.03324c-0.045-0.03404-0.0859-0.06774-0.12946-0.10145l-0.0221-0.01662c-0.14687-0.1125-0.2975-0.22192-0.44939-0.32724l-0.0212-0.01491c-0.0481-0.03279-0.0961-0.06513-0.14471-0.09713l-0.0319-0.02084c-0.0494-0.03291-0.0993-0.06478-0.14927-0.09678l-9e-3 -0.0051c-0.16532-0.10475-0.33395-0.20517-0.50564-0.30127l-7e-3 -0.0043c-0.0543-0.03028-0.10875-0.05966-0.16317-0.08904l-0.0238-0.01286c-0.28945-0.15467-0.58673-0.29677-0.89176-0.426l-0.0189-0.0081c-0.0803-0.03416-0.16133-0.06695-0.24309-0.09928h1.6086c0.262 0 0.47468-0.2859 0.47468-0.6392 0-0.35319-0.21268-0.63909-0.47468-0.63909h-0.47911c0.0296-0.07162 0.0625-0.15257 0.0979-0.24377 0.45316-0.26757 1.2504-0.83777 2.0415-1.8852l6e-3 -0.0081c0.0601-0.07834 0.11888-0.15952 0.17671-0.24332l0.0116-0.01662c0.0576-0.08221 0.11511-0.16703 0.1717-0.25561l0.0152-0.02346c0.027-0.04258 0.054-0.08516 0.0809-0.12786 0 0 0-0.0035 3e-3 -0.0054 0.0278-0.0427 0.0552-0.0895 0.0827-0.13515l0.0175-0.02937c0.0234-0.03917 0.0472-0.07925 0.0701-0.11967 4e-3 -0.0073 9e-3 -0.01457 0.013-0.0222 0.0265-0.04599 0.053-0.09291 0.0791-0.14016l0.018-0.03291c0.0215-0.03917 0.0427-0.07879 0.0637-0.11887 6e-3 -0.01104 0.0127-0.02255 0.0184-0.03404 0.0251-0.04816 0.0504-0.09678 0.0755-0.1462l0.0175-0.0345c0.0198-0.04008 0.0401-0.08095 0.0598-0.12183l0.0217-0.04258c0.0242-0.05033 0.0481-0.10145 0.0718-0.15303l0.0149-0.03279c0.0197-0.04258 0.0391-0.08528 0.0584-0.12786l0.0229-0.05112c0.0226-0.05158 0.045-0.1035 0.0665-0.15599 4e-3 -0.0093 8e-3 -0.01912 0.0117-0.02846 0.0203-0.04816 0.04-0.09724 0.0598-0.14665l0.0225-0.05625c0.0184-0.04691 0.0369-0.09416 0.0549-0.14141l0.0135-0.03586c0.0211-0.05625 0.0418-0.11374 0.0624-0.17045l0.0217-0.06046c0.0161-0.0452 0.0319-0.0912 0.0476-0.1372 6e-3 -0.01708 0.0118-0.03415 0.0171-0.05112 0.0198-0.05887 0.0396-0.11887 0.0589-0.17899 6e-3 -0.02084 0.0131-0.04258 0.0194-0.06228l0.045-0.14016c6e-3 -0.02038 0.0121-0.04258 0.018-0.06092 0.0183-0.06182 0.0368-0.12479 0.0543-0.18832 6e-3 -0.02004 0.0113-0.04053 0.0166-0.06092 0.0136-0.04907 0.027-0.09804 0.0401-0.1479 6e-3 -0.02255 0.0116-0.0452 0.018-0.06774 0.0166-0.06559 0.0332-0.13162 0.0495-0.19857l0.0135-0.05579c0.0127-0.05329 0.0251-0.10703 0.0374-0.16111l0.0161-0.07241c0.0152-0.06945 0.0305-0.13891 0.045-0.20962 3e-3 -0.01366 6e-3 -0.02778 9e-3 -0.0427 0.0126-0.06092 0.0247-0.12263 0.0363-0.18445 5e-3 -0.02516 0.01-0.05033 0.0144-0.07538 0.0116-0.06354 0.0229-0.12786 0.0341-0.1914 2e-3 -0.01366 5e-3 -0.02687 7e-3 -0.04008 0.0126-0.07491 0.0248-0.15052 0.0369-0.22669 4e-3 -0.0255 8e-3 -0.05112 0.0116-0.07708 0.01-0.06182 0.0184-0.12399 0.0274-0.18707l8e-3 -0.05796c0.0108-0.07834 0.0212-0.15724 0.0311-0.23728 3e-3 -0.02516 6e-3 -0.05033 9e-3 -0.07594 8e-3 -0.06354 0.015-0.12752 0.0217-0.19174 3e-3 -0.023 5e-3 -0.04554 8e-3 -0.06854 9e-3 -0.08243 0.0167-0.16544 0.0242-0.24924 0-0.02346 4e-3 -0.04691 6e-3 -0.07082 6e-3 -0.06729 0.0116-0.13504 0.0166-0.20324 0-0.02516 4e-3 -0.05021 6e-3 -0.07538 6e-3 -0.08698 0.0121-0.17443 0.0175-0.26256 0-0.01993 0-0.04258 3e-3 -0.06046 4e-3 -0.07332 8e-3 -0.14699 0.0113-0.22111 0-0.02687 0-0.05374 4e-3 -0.08061 4e-3 -0.09154 7e-3 -0.18365 0.01-0.2769v-0.03928c2e-3 -0.08289 4e-3 -0.16669 5e-3 -0.2514v-0.08301-0.2744-0.02141-0.2982-0.08528c0-0.08516-4e-3 -0.17466-6e-3 -0.26336v-0.04816c-3e-3 -0.10225-7e-3 -0.20574-0.0113-0.3097 0-0.02687-3e-3 -0.0542-4e-3 -0.08095-4e-3 -0.08756-8e-3 -0.17557-0.0135-0.26427 0-0.02175 0-0.04258-4e-3 -0.06604-6e-3 -0.10646-0.0131-0.21383-0.0206-0.32211l-5e-3 -0.07538c-7e-3 -0.09041-0.0135-0.18115-0.0211-0.2728 0-0.02642-4e-3 -0.05283-6e-3 -0.07925-0.01-0.11078-0.0198-0.22282-0.0307-0.33531 0-0.02129-5e-3 -0.04258-6e-3 -0.06433-0.01-0.09587-0.0198-0.19265-0.0302-0.29023-3e-3 -0.02937-6e-3 -0.05829-0.01-0.08779-0.0127-0.11591-0.026-0.23216-0.0406-0.35023 0-0.01447-4e-3 -0.02892-6e-3 -0.04258-0.0129-0.1057-0.0265-0.21194-0.0409-0.31875-5e-3 -0.03153-9e-3 -0.06306-0.0131-0.09459-0.0167-0.12101-0.0339-0.24303-0.0517-0.36603-1.7979-12.133-14.538-10.164-14.538-10.164l0.4081 2.6069-7.705 7.7168 0.33664 2.9798 2.9188 1.7045c0.13012-0.31357 0.29717-0.6121 0.49799-0.89015 1.8832-2.0594 5.5369-3.676 6.5827-4.0114 0.20945-0.0669 0.32856-0.10056 0.32856-0.10056-5.0029 6.1385-4.4339 13.171-4.211 14.847-0.23192 0.04258-0.41126 0.3081-0.41126 0.63192 0 0.35285 0.2126 0.6392 0.47463 0.6392h1.6086c-2.6753 1.0616-4.7989 3.0836-5.9072 5.6246-0.0013 0.0035-0.0029 0.0068-0.0045 0.01025-0.08181 0.18855-0.15791 0.37995-0.22833 0.57396 1.25e-4 2e-3 1.25e-4 4e-3 0 0.0059-0.01887 0.05283-0.0373 0.10566-0.05528 0.15895-0.0067 0.01912-0.01348 0.03837-0.01978 0.05796-0.01618 0.04771-0.03116 0.09587-0.04495 0.14449-0.0081 0.02471-0.01572 0.04987-0.02336 0.07458-0.01438 0.04554-0.02831 0.09155-0.0418 0.13754l-0.02428 0.08528c-0.01258 0.04258-0.02516 0.08824-0.03685 0.13253-0.0085 0.03154-0.01662 0.06263-0.02471 0.09416-0.01081 0.04258-0.02202 0.08516-0.03236 0.12786-0.01036 0.04258-0.02023 0.08516-0.03012 0.13037-0.0099 0.04509-0.02248 0.09803-0.03326 0.14745h-0.64138c-0.12333-0.0026-0.24597 0.01821-0.3607 0.06114-0.11474 0.04293-0.21927 0.10726-0.30746 0.18901-0.08818 0.08175-0.15826 0.17944-0.2061 0.28726-0.04784 0.10782-0.07248 0.22362-0.07248 0.34055s0.02463 0.23273 0.07248 0.34055c0.04783 0.10782 0.11791 0.2054 0.2061 0.28727 0.08818 0.08175 0.19272 0.14597 0.30746 0.189 0.11474 0.04293 0.23737 0.06376 0.3607 0.06114h22.732c0.12342 0.0026 0.24605-0.01821 0.3607-0.06114 0.11478-0.04304 0.21929-0.10726 0.30754-0.189 0.0881-0.08187 0.15826-0.17944 0.20608-0.28727 0.0478-0.10782 0.0724-0.22362 0.0724-0.34055s-0.0246-0.23273-0.0724-0.34055c-0.0478-0.10782-0.11795-0.20552-0.20608-0.28726-0.0883-0.08175-0.19276-0.14608-0.30754-0.18901-0.11465-0.04293-0.23728-0.06376-0.3607-0.06114z"/>
  </g>
  <g stroke-width="1.2984" aria-label="КЛУБ
ЧЕТЫРЕХ КОНЕЙ">
   <path d="m117.02 14.624v-14.542h3.7393v5.7544h1.0387l4.4456-5.7544h4.0717l-5.609 6.7931 5.8167 7.7487h-4.3625l-4.3625-6.1699h-1.0387v6.1699zm15.58 0.27006q-0.16619 0-0.4778-0.02077-0.29084 0-0.45703-0.04155v-3.2823q0.0623 0.02077 0.31161 0.02077 0.41548 0 0.70631-0.10387 0.31161-0.12464 0.51935-0.49858 0.20774-0.39471 0.35316-1.1426 0.16619-0.74786 0.22852-1.9943 0.0623-1.2672 0.0623-3.1784v-4.5703h11.01v14.542h-3.7601v-11.488h-3.7601v1.932q0 2.5968-0.20774 4.3625-0.20774 1.745-0.62322 2.8253-0.39471 1.0802-0.97638 1.6619-0.58167 0.5609-1.3295 0.76864-0.72709 0.20774-1.5996 0.20774zm18.073 0q-0.22852 0-0.45703-0.02077-0.20774 0-0.37393-0.06232v-3.0953q0.16619 0.02077 0.33238 0.04155 0.16619 0.02077 0.39471 0.02077 0.60244 0 0.93483-0.0831 0.33238-0.10387 0.51935-0.33238 0.18696-0.24929 0.31161-0.66477l-5.8375-10.616h3.8016l3.864 7.3748 3.033-7.3748h3.6562l-4.8611 10.989q-0.4778 1.0802-0.9556 1.8073-0.45703 0.72709-1.0595 1.1841-0.58167 0.43625-1.3918 0.62322-0.78942 0.20774-1.9112 0.20774zm11.841-0.27006v-14.542h10.699v3.0746h-6.9593v2.1605h2.389q3.033 0 4.4664 1.2464 1.4542 1.2257 1.4542 3.3031 0 2.2436-1.4542 3.5108-1.4334 1.2464-4.4664 1.2464zm3.7393-3.0746h1.9735q1.3503 0 1.9112-0.43626 0.5609-0.45703 0.5609-1.2464 0-0.78941-0.5609-1.2257-0.5609-0.45703-1.9112-0.45703h-1.9735z"/>
   <path d="m124.58 35.73v-5.7959q-0.54012 0.35316-1.4334 0.64399-0.87251 0.27006-2.0774 0.27006-2.2644 0-3.4277-1.1218-1.1426-1.1426-1.1426-3.6562v-4.8819h3.7393v4.2587q0 1.2257 0.51935 1.7658 0.51935 0.51935 1.4542 0.51935 0.85173 0 1.4334-0.18697 0.58168-0.20774 0.93483-0.43625v-5.9206h3.7601v14.542zm6.6684 0v-14.542h10.595v2.8668h-6.8554v2.846h6.2322v2.7006h-6.2322v3.2615h6.8554v2.8668zm16.827 0v-11.467h-4.4664v-3.0746h12.672v3.0746h-4.4664v11.467zm10.075 0v-14.542h3.7393v4.8196h1.7658q3.033 0 4.4664 1.3088 1.4542 1.3088 1.4542 3.5524t-1.4542 3.5524q-1.4334 1.3088-4.4664 1.3088zm3.7393-3.0746h1.3503q1.3088 0 1.8904-0.49858 0.58168-0.49858 0.58168-1.288t-0.58168-1.288q-0.58167-0.49858-1.8904-0.49858h-1.3503zm8.7251 3.0746v-14.542h3.7393v14.542zm6.6477 0v-14.542h5.9206q2.0358 0 3.3446 0.60245 1.3088 0.58167 1.932 1.7035 0.64399 1.101 0.64399 2.6591 0 1.5373-0.64399 2.6591-0.62322 1.1218-1.932 1.7242-1.3088 0.58167-3.3446 0.58167h-2.1813v4.6118zm3.7393-7.6864h1.7658q1.4334 0 2.0151-0.4778t0.58167-1.4126-0.58167-1.4126-2.0151-0.4778h-1.7658zm10.179 7.6864v-14.542h10.595v2.8668h-6.8554v2.846h6.2322v2.7006h-6.2322v3.2615h6.8554v2.8668zm12.049 0 4.7365-7.5825-4.5287-6.9593h4.134l2.846 4.4041 2.8876-4.4041h4.0509l-4.508 6.9177 4.7157 7.6241h-4.1756l-3.033-5.0896-3.033 5.0896zm21.293 0v-14.542h3.7393v5.7544h1.0387l4.4456-5.7544h4.0717l-5.609 6.7931 5.8167 7.7487h-4.3625l-4.3625-6.1699h-1.0387v6.1699zm21.605 0.27006q-1.4126 0-2.7006-0.41548t-2.2644-1.3088-1.5373-2.3059q-0.5609-1.4334-0.5609-3.4069v-0.41548q0-1.9112 0.5609-3.2823 0.56089-1.3711 1.5373-2.2436t2.2644-1.288 2.7006-0.41548q1.4542 0 2.7214 0.41548 1.2672 0.41548 2.2436 1.288 0.97638 0.87251 1.5373 2.2436t0.5609 3.2823v0.41548q0 1.9735-0.5609 3.4069-0.5609 1.4126-1.5373 2.3059-0.97637 0.89328-2.2436 1.3088-1.2672 0.41548-2.7214 0.41548zm-0.0208-3.1161q0.85174 0 1.5788-0.37393 0.72709-0.39471 1.1633-1.3088 0.45703-0.93483 0.45703-2.6383v-0.41548q0-1.6204-0.45703-2.5137-0.43625-0.89328-1.1633-1.2464t-1.5788-0.35316q-0.81018 0-1.5373 0.35316t-1.1841 1.2464-0.45703 2.5137v0.41548q0 1.7035 0.45703 2.6383 0.45703 0.91406 1.1841 1.3088 0.72709 0.37393 1.5373 0.37393zm9.473 2.846v-14.542h3.7393v5.5259h5.4012v-5.5259h3.7393v14.542h-3.7393v-5.9414h-5.4012v5.9414zm15.788 0v-14.542h10.595v2.8668h-6.8554v2.846h6.2322v2.7006h-6.2322v3.2615h6.8554v2.8668zm12.984 0v-14.542h3.7393v8.7251l5.7128-8.7251h3.4277v14.542h-3.7393v-8.7251l-5.7128 8.7251zm6.4399-15.352q-1.4542 0-2.389-0.39471-0.91406-0.41548-1.3503-1.2049-0.41548-0.78941-0.41548-1.9735h3.033q0 0.87251 0.24929 1.1841 0.27006 0.29084 0.87251 0.29084 0.60244 0 0.85173-0.29084 0.27006-0.31161 0.27006-1.1841h3.033q0 1.1841-0.43626 1.9735-0.41548 0.78941-1.3295 1.2049-0.91406 0.39471-2.389 0.39471z"/>
  </g>
 </g>
</svg>
